/* XPM */
static char * Comunicacion_xpm[] = {
"22 22 103 2",
"  	c None",
". 	c #3EACCE",
"+ 	c #3AAACB",
"@ 	c #32A6C7",
"# 	c #31A5C8",
"$ 	c #3FAECD",
"% 	c #3EABCB",
"& 	c #31A5C7",
"* 	c #1F9EC3",
"= 	c #189BC1",
"- 	c #31A6C8",
"; 	c #3FADCB",
"> 	c #38A8C8",
", 	c #209FC3",
"' 	c #219FC3",
") 	c #35A7C8",
"! 	c #1C9DC2",
"~ 	c #36A8C9",
"{ 	c #39AAC9",
"] 	c #1D9DC2",
"^ 	c #4CB1CE",
"/ 	c #52B2CD",
"( 	c #229FC4",
"_ 	c #3AABCB",
": 	c #25A0C4",
"< 	c #5CB7D1",
"[ 	c #3DAACA",
"} 	c #E7F3F6",
"| 	c #83C6D9",
"1 	c #E0F0F5",
"2 	c #ABD5E1",
"3 	c #2AA0C2",
"4 	c #26A1C4",
"5 	c #2FA4C8",
"6 	c #CDE6ED",
"7 	c #E2F0F5",
"8 	c #FFFFFF",
"9 	c #9AC8D6",
"0 	c #1796BB",
"a 	c #30A5C7",
"b 	c #23A0C4",
"c 	c #39A8C8",
"d 	c #37A2C1",
"e 	c #23A0C3",
"f 	c #1C9DC1",
"g 	c #7BC1D5",
"h 	c #FCFEFE",
"i 	c #B5DDE9",
"j 	c #28A2C5",
"k 	c #1C9CC1",
"l 	c #1A9CC2",
"m 	c #C0DFE8",
"n 	c #DAEDF2",
"o 	c #1B9CC2",
"p 	c #189AC0",
"q 	c #FCFDFE",
"r 	c #A9D1DD",
"s 	c #1899C0",
"t 	c #1898BE",
"u 	c #A0D2E1",
"v 	c #FDFEFE",
"w 	c #82C6D9",
"x 	c #1899BF",
"y 	c #1896BA",
"z 	c #73C1D8",
"A 	c #FEFEFF",
"B 	c #E3F0F4",
"C 	c #34A7C9",
"D 	c #1796B9",
"E 	c #319CB9",
"F 	c #73C3DA",
"G 	c #C5E4ED",
"H 	c #CFE7EF",
"I 	c #178CB2",
"J 	c #E2ECF0",
"K 	c #CCE3EA",
"L 	c #1896BB",
"M 	c #8FB7C3",
"N 	c #DBEBF0",
"O 	c #A9CFDA",
"P 	c #379CBA",
"Q 	c #1481A0",
"R 	c #A9C6CF",
"S 	c #389BB8",
"T 	c #168CAE",
"U 	c #1690B3",
"V 	c #1797BC",
"W 	c #1588AA",
"X 	c #A7C5CC",
"Y 	c #74BED3",
"Z 	c #1586A8",
"` 	c #81A8B2",
" .	c #E1EBEE",
"..	c #80C1D4",
"+.	c #10728F",
"@.	c #84ABB7",
"#.	c #B0CBD2",
"$.	c #DAE8EC",
"%.	c #F5F8F9",
"&.	c #5CB0C6",
"*.	c #1696BB",
"=.	c #158CAD",
"-.	c #127492",
"                                            ",
"              . + @ # # @ + $               ",
"          % & * = = = = = = * - ;           ",
"        > , = = = = = = = = = = ' >         ",
"      ) ! = = = = = = = = = = = = ! ~       ",
"    { ] = = = = = ^ / = ( = = = = = ] _     ",
"    : = = = = < [ } | 1 2 3 = = = = = 4     ",
"  5 = = = = = 6 7 8 8 9 0 = = = = = = = a   ",
"  b = = = = c 8 8 8 8 d = = = = = = = = e   ",
"  f = = = = g 8 8 8 8 h i j = = = = = = k   ",
"  l = = = = m 8 8 8 8 8 8 n = = = = = = o   ",
"  p = = = a q 8 8 8 8 8 8 r = = = = = = s   ",
"  t = = = u 8 8 8 8 8 8 8 v w = = = = = x   ",
"  y = = z A 8 8 8 8 8 8 8 8 B C = = = = D   ",
"  E F G 8 8 8 8 8 8 8 8 8 8 8 H = = = = I   ",
"    J 8 8 8 8 8 8 8 8 8 8 8 8 K = = = L     ",
"    M 8 8 8 8 8 8 8 8 8 A N O P = = = Q     ",
"      R 8 8 8 8 8 8 8 S T U V = = = W       ",
"        X 8 8 8 8 8 8 Y = = = = = Z         ",
"          `  .8 8 8 8 ..= = = 0 +.          ",
"              @.#.$.%.&.*.=.-.              ",
"                                            "};
