/* XPM */
static char * Dev_xpm[] = {
"22 22 42 1",
" 	c None",
".	c #5A5A5A",
"+	c #585858",
"@	c #595959",
"#	c #515151",
"$	c #4F4F4F",
"%	c #A0A0A0",
"&	c #E2E2E2",
"*	c #676767",
"=	c #D7D7D7",
"-	c #FFFFFF",
";	c #ECECEC",
">	c #6D6D6D",
",	c #545454",
"'	c #D4D4D4",
")	c #F3F3F3",
"!	c #7B7B7B",
"~	c #525252",
"{	c #CDCDCD",
"]	c #F9F9F9",
"^	c #818181",
"/	c #535353",
"(	c #878787",
"_	c #D9D9D9",
":	c #F8F8F8",
"<	c #787878",
"[	c #8E8E8E",
"}	c #A2A2A2",
"|	c #959595",
"1	c #5F5F5F",
"2	c #8F8F8F",
"3	c #989898",
"4	c #565656",
"5	c #F2F2F2",
"6	c #F1F1F1",
"7	c #6F6F6F",
"8	c #939393",
"9	c #4D4D4D",
"0	c #4A4A4A",
"a	c #484848",
"b	c #474747",
"c	c #444444",
"                      ",
"                      ",
" .++++++++++++++++++@ ",
" #$$$$$$$$$$$$$$$$$$# ",
" $$%&*$$$$$$$$$$$$$$$ ",
" $$=-;>$$$$$$$$$$$$$$ ",
" $$,'-)!$$$$$$$$$$$$$ ",
" $$$~{-]^$$$$$$$$$$$$ ",
" $$$/(_:<$$$$$$$$$$$$ ",
" $$,[}|1$$$$$$$$$$$$$ ",
" $$2}34$$5----6$$$$$$ ",
" $$78/$$$6----6$$$$$$ ",
" $$90$$$$abbbba$$$$$$ ",
" $$$$$$$$$$$$$$$$$$$$ ",
" $$$$$$$$$$$$$$$$$$$$ ",
" $$$$$$$$$$$$$$$$$$$$ ",
" $$$$$$$$$$$$$$$$$$$$ ",
" $$$$$$$$$$$$$$$$$$$$ ",
" $$$$$$$$$$$$$$$$$$$$ ",
" c$$$$$$$$$$$$$$$$$$c ",
"                      ",
"                      "};
