/* XPM */
static char * Entretenimiento_xpm[] = {
"22 22 31 1",
" 	c None",
".	c #5A5A5A",
"+	c #585858",
"@	c #575757",
"#	c #595959",
"$	c #545454",
"%	c #4F4F4F",
"&	c #535353",
"*	c #E4E4E4",
"=	c #C95151",
"-	c #C75050",
";	c #525252",
">	c #C54E4E",
",	c #C44E4E",
"'	c #4A4A4A",
")	c #D6AD55",
"!	c #D4AB54",
"~	c #494949",
"{	c #D2A952",
"]	c #D1A952",
"^	c #474747",
"/	c #4C4C4C",
"(	c #4B4B4B",
"_	c #4D4D4D",
":	c #4E4E4E",
"<	c #484848",
"[	c #505050",
"}	c #414141",
"|	c #464646",
"1	c #454545",
"2	c #424242",
"                      ",
"                      ",
"                      ",
"    .+++++++++++@#    ",
"   $%%%%%%%%%%%%%%$   ",
"  &%%**%%%%%%%%=-%%;  ",
"  %%%**%%%%%%%%>,%%%  ",
" '%******%%%%=-'')!%~ ",
" '%******%%%%>,%%{]%' ",
" '%^^**^^%%%%'')!''%' ",
" /%%%**%%%%%%%%{]%%%( ",
" /%%%^^%%%%%%%%''%%%/ ",
" /%%%%%%%%%%%%%%%%%%_ ",
" _%%%%%%%%%%%%%%%%%%_ ",
" :%%%%^        <%%%%: ",
" :%%%/          /%%%: ",
" %%%:            %%%[ ",
" :%%             }%%: ",
" |:}              1:2 ",
"                      ",
"                      ",
"                      "};
