/* XPM */
static char * www_xpm[] = {
"22 22 88 1",
" 	c None",
".	c #2FB6F5",
"+	c #27B5F5",
"@	c #1FB1F5",
"#	c #1DB2F5",
"$	c #2FB8F7",
"%	c #2EB8F4",
"&	c #1EB2F5",
"*	c #0AABF3",
"=	c #02A8F3",
"-	c #1EB1F5",
";	c #2FB8F4",
">	c #27B4F5",
",	c #0BABF3",
"'	c #016795",
")	c #016796",
"!	c #0CABF3",
"~	c #26B4F3",
"{	c #22B2F3",
"]	c #06A9F3",
"^	c #015479",
"/	c #23B2F5",
"(	c #24B3F4",
"_	c #08AAF3",
":	c #26B7F3",
"<	c #10ACF4",
"[	c #11ADF4",
"}	c #1EB0F4",
"|	c #02A7F2",
"1	c #0286C2",
"2	c #01608B",
"3	c #01567D",
"4	c #01638F",
"5	c #029ADE",
"6	c #0283BE",
"7	c #0282BD",
"8	c #0298DC",
"9	c #03A8F3",
"0	c #1CB1F4",
"a	c #0EADF3",
"b	c #017AB0",
"c	c #01547A",
"d	c #0177AC",
"e	c #07AAF3",
"f	c #028DCC",
"g	c #02A4ED",
"h	c #028CCB",
"i	c #0294D6",
"j	c #0175A9",
"k	c #0287C3",
"l	c #07A9F3",
"m	c #04A9F3",
"n	c #01567C",
"o	c #01618C",
"p	c #05A9F3",
"q	c #0174A8",
"r	c #02A3EC",
"s	c #02A6F1",
"t	c #028CCA",
"u	c #01628E",
"v	c #02A1EA",
"w	c #017EB6",
"x	c #0286C1",
"y	c #0288C4",
"z	c #02A1E9",
"A	c #039ADD",
"B	c #01628D",
"C	c #016694",
"D	c #0179AF",
"E	c #017BB1",
"F	c #0398DD",
"G	c #038DCA",
"H	c #038CCB",
"I	c #0295D5",
"J	c #0295D6",
"K	c #0292D4",
"L	c #0280B9",
"M	c #0280BA",
"N	c #0291D3",
"O	c #037EB5",
"P	c #02A2EB",
"Q	c #02A2EA",
"R	c #037DB5",
"S	c #0380B7",
"T	c #0296DA",
"U	c #02A3EB",
"V	c #02A7F1",
"W	c #037EB6",
"                      ",
"       .+@##@+$       ",
"     %&*======*-;     ",
"    >,=====')===!~    ",
"   {]======^^====]/   ",
"  (_=======^^=====_:  ",
"  <========^^======[  ",
" }=|12341|=^^5678==90 ",
" a=b^^^^^b=^^^^^cd|=a ",
" e8c3fgh3ci^^3jj3^k=l ",
" m7^j===j^n^^f==h^o=p ",
" |7^j===q^^^^g==r^3=| ",
" s8c3hgt3^u2^h==t^o=s ",
" v=d^^^^^^wx^3qq3^y=z ",
" A==ko3BC^w=Dc^^cE==F ",
"  r=====w^w==5x65==g  ",
"  G=====w^w========H  ",
"   I====w^w=======J   ",
"    K===L^M======N    ",
"     OP=z6Q====PR     ",
"       STUVVUTW       ",
"                      "};
