/* XPM */
static char * Notas_xpm[] = {
"22 22 13 1",
" 	c None",
".	c #3B87D8",
"+	c #247CDB",
"@	c #227CDA",
"#	c #3A87D8",
"$	c #1371D8",
"%	c #086CD6",
"&	c #1371D7",
"*	c #CDCDCD",
"=	c #E4E4E4",
"-	c #B6B6B6",
";	c #E3E3E3",
">	c #C5C5C5",
"                      ",
" .+@@@@@@@@@@@@@@@@+# ",
" $%%%%%%%%%%%%%%%%%%& ",
" %%%%%%%%%%%%%%%%%%%% ",
" %%%%%%%%%%%%%%%%%%%% ",
" %%%%%%%%%%%%%%%%%%%% ",
" ******************** ",
" ==================== ",
" ==================== ",
" ==================== ",
" ===--------------=== ",
" ==================== ",
" ==================== ",
" ===-----------====== ",
" ==================== ",
" ==================== ",
" ===-------------==== ",
" ==================== ",
" ==================== ",
" ;==================; ",
" >;================;> ",
"                      "};
