/* XPM */
static char * bitwarden_xpm[] = {
"22 22 45 1",
" 	c None",
".	c #2466DB",
"+	c #2365DE",
"@	c #2565D9",
"#	c #185EDC",
"$	c #175DDC",
"%	c #D1DAEA",
"&	c #E0E5EC",
"*	c #E4E7ED",
"=	c #EFEFEF",
"-	c #D0D9EA",
";	c #EAEBED",
">	c #E9EBED",
",	c #ECEDEE",
"'	c #1553C5",
")	c #EBECEE",
"!	c #EEEEEF",
"~	c #EDEEEE",
"{	c #E8E9ED",
"]	c #1C61DD",
"^	c #E8EAED",
"/	c #D3DAE7",
"(	c #4D80DE",
"_	c #D2DAE7",
":	c #7F9ED5",
"<	c #2566DD",
"[	c #C8D3E8",
"}	c #1E5FD4",
"|	c #CCD5E5",
"1	c #3370DF",
"2	c #C4D1E8",
"3	c #2C65CC",
"4	c #CFD7E6",
"5	c #789EE4",
"6	c #E3E6ED",
"7	c #235FCC",
"8	c #A8BADB",
"9	c #A7B9DB",
"0	c #1659D3",
"a	c #547EC9",
"b	c #C5D0E3",
"c	c #537DC9",
"d	c #1657CE",
"e	c #1657CF",
"f	c #1558CF",
"                      ",
" .++++++++++++++++++@ ",
" #$$$$$$$$$$$$$$$$$$# ",
" $$$$$$$$$$$$$$$$$$$$ ",
" $$$$%&&*====*&&-$$$$ ",
" $$$$;==========>$$$$ ",
" $$$$,=====''''=)$$$$ ",
" $$$$!=====$$$$=~$$$$ ",
" $$$$!=====$$$$=!$$$$ ",
" $$$$~=====$$$$=)$$$$ ",
" $$$$;=====$$$$=>$$$$ ",
" $$$${=====$$$]=^$$$$ ",
" $$$$/=====$$$(=_$$$$ ",
" $$$$:=====$$<[=:$$$$ ",
" $$$$}|====$12=|}$$$$ ",
" $$$$$34===56=43$$$$$ ",
" $$$$$$78====97$$$$$$ ",
" $$$$$$$0abbc0$$$$$$$ ",
" $$$$$$$$$dd$$$$$$$$$ ",
" $$$$$$$$$$$$$$$$$$$$ ",
" e$$$$$$$$$$$$$$$$$$f ",
"                      "};
