/* XPM */
static char * Background_xpm[] = {
"22 22 16 1",
" 	c None",
".	c #5B5B5B",
"+	c #585858",
"@	c #535353",
"#	c #4F4F4F",
"$	c #555555",
"%	c #545454",
"&	c #464646",
"*	c #454545",
"=	c #525252",
"-	c #4D4D4D",
";	c #505050",
">	c #4E4E4E",
",	c #474747",
"'	c #949494",
")	c #8E8E8E",
"                      ",
"        .++++.        ",
"      +@######@+      ",
"     $##########$     ",
"    %###&    *###%    ",
"   =##-        -##=   ",
"   ;##          ##;   ",
"  >##,          &###  ",
"  >##            ##>  ",
"  ###            ###  ",
"  ###            ###  ",
"  ###            ###  ",
"  ###            ###  ",
"  ###'''      '''###  ",
"  ###)))      )))###  ",
"  ###)))      )))###  ",
"  >##)))      )))##>  ",
"  ,##)))      )))##,  ",
"   ,>)))      )))>*   ",
"     )))      )))     ",
"                      ",
"                      "};
