/* XPM */
static char * GFX_xpm[] = {
"22 22 88 1",
" 	c None",
".	c #606060",
"+	c #5B5B5B",
"@	c #595959",
"#	c #585858",
"$	c #5F5F5F",
"%	c #525252",
"&	c #4F4F4F",
"*	c #5E5E5E",
"=	c #5A5A5A",
"-	c #505050",
";	c #A9A9A9",
">	c #DEDEDE",
",	c #F7F7F7",
"'	c #DDDDDD",
")	c #5D5D5D",
"!	c #515151",
"~	c #898989",
"{	c #F5F5F5",
"]	c #F1F1F1",
"^	c #ADADAD",
"/	c #696969",
"(	c #646464",
"_	c #838383",
":	c #C2C2C2",
"<	c #F4F4F4",
"[	c #888888",
"}	c #535353",
"|	c #959595",
"1	c #D4D4D4",
"2	c #7C7C7C",
"3	c #F2F2F2",
"4	c #555555",
"5	c #7F7F7F",
"6	c #A6A6A6",
"7	c #AAAAAA",
"8	c #575757",
"9	c #C8C8C8",
"0	c #B3B3B3",
"a	c #C4C4C4",
"b	c #686868",
"c	c #A8A8A8",
"d	c #DFDFDF",
"e	c #858585",
"f	c #919191",
"g	c #FEFEFE",
"h	c #9A9A9A",
"i	c #F3F3F3",
"j	c #909090",
"k	c #F6F6F6",
"l	c #737373",
"m	c #7A7A7A",
"n	c #818181",
"o	c #D6D6D6",
"p	c #979797",
"q	c #656565",
"r	c #CFCFCF",
"s	c #4E4E4E",
"t	c #828282",
"u	c #A5A5A5",
"v	c #9E9E9E",
"w	c #8D8D8D",
"x	c #DCDCDC",
"y	c #4C4C4C",
"z	c #BFBFBF",
"A	c #B2B2B2",
"B	c #C3C3C3",
"C	c #A7A7A7",
"D	c #4B4B4B",
"E	c #484848",
"F	c #8F8F8F",
"G	c #FAFAFA",
"H	c #8E8E8E",
"I	c #7D7D7D",
"J	c #474747",
"K	c #4D4D4D",
"L	c #CCCCCC",
"M	c #CBCBCB",
"N	c #6F6F6F",
"O	c #868686",
"P	c #434343",
"Q	c #878787",
"R	c #3E3E3E",
"S	c #454545",
"T	c #444444",
"U	c #3C3C3C",
"V	c #3A3A3A",
"W	c #464646",
"                      ",
"       .+@##@+$       ",
"     .#%&&&&&&%#*     ",
"    +%&&&&&&&&&&%=    ",
"   @-&&*;>,,';)&&-=   ",
"  +!&&~{]^/(_:<[&&!+  ",
"  }&&~{|1!&&&&23[&&4  ",
" #&&*{567&&&&&&2<)&&8 ",
" }&&;9&0a&&&&b%&:c&&} ",
" !&&de&fgf--hgij_'&&- ",
" -&&k/&-la3i:mnopk&&- ",
" &&&kq&&&-or-&&8r{&&s ",
" s&&>t&&&&uv&&&&wx&&s ",
" y&&;:&&&&zA&&&&BC&&D ",
" E&&)<2&-FGH&&&Ii)&&J ",
"  K&&[3zLMN&&&I3O&&y  ",
"  P&&&[<:_qq_BiQ&&&R  ",
"   S&&&)cx,kxc)&&&S   ",
"    S&&&&&&&&&&&&T    ",
"     UK&&&&&&&&KV     ",
"       VJKssKWV       ",
"                      "};
