/* XPM */
static char * kodi_xpm[] = {
"22 22 51 1",
" 	c None",
".	c #4CB7E3",
"+	c #46B6E3",
"@	c #4CB7E2",
"#	c #45B3E0",
"$	c #31AFE1",
"%	c #44B3E0",
"&	c #43B3E0",
"*	c #E0F1F7",
"=	c #43B6E4",
"-	c #C4E6F2",
";	c #E1F1F7",
">	c #FFFFFF",
",	c #DCEFF7",
"'	c #C3E2EE",
")	c #DBEFF7",
"!	c #DDEDF3",
"~	c #41AAD3",
"{	c #41A9D3",
"]	c #42B6E3",
"^	c #42B2DD",
"/	c #DAEEF7",
"(	c #42B0DD",
"_	c #33AEDF",
":	c #FDFEFE",
"<	c #50B0D6",
"[	c #32AFE0",
"}	c #2DA2D1",
"|	c #2EA2D0",
"1	c #2EA7D6",
"2	c #DAEEF6",
"3	c #50ABCE",
"4	c #D9EBF2",
"5	c #DEF0F7",
"6	c #45B7E4",
"7	c #2FA8D8",
"8	c #DAEBF2",
"9	c #3FA8D2",
"0	c #3FA9D3",
"a	c #3EA9D2",
"b	c #DBEBF1",
"c	c #3FA9D2",
"d	c #DBECF2",
"e	c #BEE0ED",
"f	c #556F7A",
"g	c #BAD7E3",
"h	c #B9D6E3",
"i	c #54707E",
"j	c #2DA0CE",
"k	c #31AEDF",
"l	c #2DA1CE",
"         .+@          ",
"        #$$$%         ",
"       #$$$$$&        ",
"      #$$$$$$$&       ",
"     *$$$$$$$$=-      ",
"    ;>$$$$$$$=,>'     ",
"   #>>$$$$$$=)>!~&    ",
"  #$>>$$$$$=)>!{$$&   ",
" #$$>>$$$$])>!{$$$$&  ",
"^$$$>>$$$]/>!{$$$$$$( ",
"_$$$>>$$=)>:<$$$$$$$[ ",
"}$$$>>$=)>:>)=$$$$$$| ",
" 1$$>>]2>!34>56$$$$7  ",
"  1$>>)>89$08>,=$$7   ",
"   1>>>!~$$$a4>567    ",
"    b>8c$$$$$cd>e     ",
"    fg9$$$$$$$0hi     ",
"      1$$$$$$$7       ",
"       1$$$$$7        ",
"        1$$$7         ",
"         jkl          ",
"                      "};
